<svg width="88" height="21" viewBox="0 0 88 21" fill="none" xmlns="http://www.w3.org/2000/svg">
<path d="M88 17.8432H83.1871L75.2529 11.9093L73.7627 13.522V17.9259H71.1449V0.124055H73.7627V9.03533L82.583 0.103379H86.2682L77.2063 9.80033L88 17.8432Z" fill="#FFFFE6"/>
<path d="M68.7562 17.9259H65.2724L54.6196 3.01867V17.8846H51.9816V0H55.7071L66.1383 14.5558V0H68.7562V17.9259Z" fill="#FFFFE6"/>
<path d="M29.7395 9.30411C30.5853 8.79411 31.0082 7.88438 31.0082 6.57491C31.0082 5.07246 30.5182 4.01111 29.5382 3.39083C29.0817 3.10137 28.6051 2.92907 28.1084 2.87394L19.3888 2.85326V9.73831H28.2494C28.7595 9.72452 29.2562 9.57979 29.7395 9.30411ZM30.8673 11.6818C31.5251 12.2608 32.0688 12.9637 32.4984 13.7908C32.9414 14.604 33.2368 15.3483 33.3844 16.0238C33.5455 16.6992 33.6261 17.3332 33.6261 17.9259H31.0082C31.0082 17.857 31.0015 17.7674 30.9881 17.6571C30.9746 17.5331 30.9411 17.3263 30.8874 17.0369C30.8471 16.7336 30.78 16.4373 30.686 16.1478C30.6055 15.8583 30.4712 15.5344 30.2833 15.176C30.0953 14.8177 29.8805 14.4937 29.6389 14.2043C29.3972 13.9148 29.075 13.6391 28.6723 13.3772C28.2829 13.1016 27.8466 12.8948 27.3633 12.757C26.7323 12.5916 24.2017 12.4606 19.7715 12.3641H19.3888V17.9259H16.7508V0.0827041L28.2292 0.124055C29.1421 0.165407 30.0416 0.468653 30.9277 1.03379C32.7266 2.17785 33.6261 4.00422 33.6261 6.51288C33.6261 7.68451 33.3912 8.71141 32.9213 9.59357C32.4648 10.4757 31.7936 11.158 30.9075 11.6405C30.8941 11.6543 30.8807 11.668 30.8673 11.6818Z" fill="#FFFFE6"/>
<path d="M2.63802 2.74988V7.42261H12.7672V10.1105H2.63802V17.9259H0V0.041351H14.9219V2.74988H2.63802Z" fill="#FFFFE6"/>
<path d="M42.7839 1.62963L36.6667 14.9139L41.301 13.3484C41.4802 13.2965 41.6408 13.3138 41.7953 13.4232C41.9127 13.5038 42.0177 13.6534 42.0116 13.8318L41.9807 20.3704H43.5749L43.544 13.8318C43.544 13.6534 43.6428 13.5095 43.7602 13.4232C43.9147 13.3138 44.0754 13.2965 44.2546 13.3484L48.8889 14.9139L42.7839 1.62963Z" fill="#FFFFE6"/>
</svg>
